<mxfile host="app.diagrams.net" modified="2022-12-05T02:56:26.604Z" agent="5.0 (Macintosh; Intel Mac OS X 10_15_7) AppleWebKit/537.36 (KHTML, like Gecko) Chrome/107.0.0.0 Safari/537.36 Edg/107.0.1418.68" version="20.6.0" etag="QzGgtorZE01gyvUePj6d" type="github">
  <diagram id="JijADks3MuCWAzi7ZPhF" name="工作空间-git仓库">
    <mxGraphModel dx="1211" dy="773" grid="1" gridSize="10" guides="1" tooltips="1" connect="1" arrows="1" fold="1" page="1" pageScale="1" pageWidth="827" pageHeight="1169" math="0" shadow="0">
      <root>
        <mxCell id="0" />
        <mxCell id="1" parent="0" />
        <mxCell id="v8o-yKlLDHv4aurgAIXX-1" value="" style="swimlane;startSize=0;rounded=1;sketch=1;hachureGap=4;jiggle=2;fontFamily=Architects Daughter;fontSource=https%3A%2F%2Ffonts.googleapis.com%2Fcss%3Ffamily%3DArchitects%2BDaughter;fontSize=20;" vertex="1" parent="1">
          <mxGeometry x="120" y="160" width="200" height="200" as="geometry" />
        </mxCell>
        <mxCell id="v8o-yKlLDHv4aurgAIXX-2" value="工作空间" style="text;html=1;align=center;verticalAlign=middle;resizable=0;points=[];autosize=1;strokeColor=none;fillColor=none;fontSize=20;fontFamily=Architects Daughter;sketch=1;hachureGap=4;jiggle=2;fontSource=https%3A%2F%2Ffonts.googleapis.com%2Fcss%3Ffamily%3DArchitects%2BDaughter;" vertex="1" parent="v8o-yKlLDHv4aurgAIXX-1">
          <mxGeometry x="50" width="100" height="40" as="geometry" />
        </mxCell>
      </root>
    </mxGraphModel>
  </diagram>
</mxfile>
